<svg width="52" height="36" viewBox="0 0 52 36" fill="none" xmlns="http://www.w3.org/2000/svg">
<rect width="3.10452" height="24.7921" transform="matrix(-0.712712 0.701457 -0.704896 -0.709311 21.6885 25.5853)" fill="black"/>
<rect width="3.10452" height="24.7921" transform="matrix(-0.712712 0.701457 -0.704896 -0.709311 21.6885 25.5853)" fill="black"/>
<rect width="3.10452" height="24.7921" transform="matrix(-0.712712 0.701457 -0.704896 -0.709311 21.6885 25.5853)" fill="#C561E1"/>
<rect width="3.10433" height="24.9" transform="matrix(0.703592 0.710605 -0.714 0.700146 19.8158 8.04104)" fill="black"/>
<rect width="3.10433" height="24.9" transform="matrix(0.703592 0.710605 -0.714 0.700146 19.8158 8.04104)" fill="black"/>
<rect width="3.10433" height="24.9" transform="matrix(0.703592 0.710605 -0.714 0.700146 19.8158 8.04104)" fill="#C561E1"/>
<rect width="0.918627" height="7.33367" transform="matrix(-0.72259 0.691277 -0.71489 -0.699237 14.9066 20.128)" fill="black"/>
<rect width="0.918627" height="7.33367" transform="matrix(-0.72259 0.691277 -0.71489 -0.699237 14.9066 20.128)" fill="black"/>
<rect width="0.918627" height="7.33367" transform="matrix(-0.72259 0.691277 -0.71489 -0.699237 14.9066 20.128)" fill="black"/>
<rect width="0.918233" height="7.36828" transform="matrix(0.713605 0.700549 -0.723858 0.689949 14.3448 15.012)" fill="black"/>
<rect width="0.918233" height="7.36828" transform="matrix(0.713605 0.700549 -0.723858 0.689949 14.3448 15.012)" fill="black"/>
<rect width="0.918233" height="7.36828" transform="matrix(0.713605 0.700549 -0.723858 0.689949 14.3448 15.012)" fill="black"/>
<path d="M11.8182 22H8.8608V13.2727H11.8778C12.7443 13.2727 13.4886 13.4474 14.1108 13.7969C14.7358 14.1435 15.2159 14.642 15.5511 15.2926C15.8864 15.9432 16.054 16.7216 16.054 17.6278C16.054 18.5369 15.8849 19.3182 15.5469 19.9716C15.2116 20.625 14.7273 21.1264 14.0938 21.4759C13.4631 21.8253 12.7045 22 11.8182 22ZM10.4418 20.6321H11.7415C12.3494 20.6321 12.8565 20.5213 13.2628 20.2997C13.669 20.0753 13.9744 19.7415 14.179 19.2983C14.3835 18.8523 14.4858 18.2955 14.4858 17.6278C14.4858 16.9602 14.3835 16.4062 14.179 15.9659C13.9744 15.5227 13.6719 15.1918 13.2713 14.973C12.8736 14.7514 12.3793 14.6406 11.7884 14.6406H10.4418V20.6321ZM20.3857 22.1278C19.7294 22.1278 19.1626 21.9915 18.6854 21.7188C18.2109 21.4432 17.8459 21.054 17.5902 20.5511C17.3345 20.0455 17.2067 19.4503 17.2067 18.7656C17.2067 18.0923 17.3345 17.5014 17.5902 16.9929C17.8487 16.4815 18.2095 16.0838 18.6726 15.7997C19.1357 15.5128 19.6797 15.3693 20.3047 15.3693C20.7081 15.3693 21.0888 15.4347 21.4467 15.5653C21.8075 15.6932 22.1257 15.892 22.4013 16.1619C22.6797 16.4318 22.8984 16.7756 23.0575 17.1932C23.2166 17.608 23.2962 18.1023 23.2962 18.6761V19.1491H17.9311V18.1094H21.8175C21.8146 17.8139 21.7507 17.5511 21.6257 17.321C21.5007 17.0881 21.326 16.9048 21.1016 16.7713C20.88 16.6378 20.6214 16.571 20.326 16.571C20.0107 16.571 19.7337 16.6477 19.495 16.8011C19.2564 16.9517 19.0703 17.1506 18.9368 17.3977C18.8061 17.642 18.7393 17.9105 18.7365 18.2031V19.1108C18.7365 19.4915 18.8061 19.8182 18.9453 20.0909C19.0845 20.3608 19.2791 20.5682 19.5291 20.7131C19.7791 20.8551 20.0717 20.9261 20.407 20.9261C20.6314 20.9261 20.8345 20.8949 21.0163 20.8324C21.1982 20.767 21.3558 20.6719 21.4893 20.5469C21.6229 20.4219 21.7237 20.267 21.7919 20.0824L23.2322 20.2443C23.1413 20.625 22.968 20.9574 22.7124 21.2415C22.4595 21.5227 22.1357 21.7415 21.7408 21.8977C21.3459 22.0511 20.8942 22.1278 20.3857 22.1278ZM27.8697 15.4545V16.6477H24.1069V15.4545H27.8697ZM25.0359 13.8864H26.5785V20.0312C26.5785 20.2386 26.6097 20.3977 26.6722 20.5085C26.7376 20.6165 26.8228 20.6903 26.9279 20.7301C27.033 20.7699 27.1495 20.7898 27.2773 20.7898C27.3739 20.7898 27.462 20.7827 27.5415 20.7685C27.6239 20.7543 27.6864 20.7415 27.729 20.7301L27.989 21.9361C27.9066 21.9645 27.7887 21.9957 27.6353 22.0298C27.4847 22.0639 27.3001 22.0838 27.0813 22.0895C26.695 22.1009 26.3469 22.0426 26.0373 21.9148C25.7276 21.7841 25.4819 21.5824 25.3001 21.3097C25.1211 21.0369 25.033 20.696 25.0359 20.2869V13.8864ZM31.9872 22.1278C31.331 22.1278 30.7642 21.9915 30.2869 21.7188C29.8125 21.4432 29.4474 21.054 29.1918 20.5511C28.9361 20.0455 28.8082 19.4503 28.8082 18.7656C28.8082 18.0923 28.9361 17.5014 29.1918 16.9929C29.4503 16.4815 29.8111 16.0838 30.2741 15.7997C30.7372 15.5128 31.2812 15.3693 31.9062 15.3693C32.3097 15.3693 32.6903 15.4347 33.0483 15.5653C33.4091 15.6932 33.7273 15.892 34.0028 16.1619C34.2813 16.4318 34.5 16.7756 34.6591 17.1932C34.8182 17.608 34.8977 18.1023 34.8977 18.6761V19.1491H29.5327V18.1094H33.419C33.4162 17.8139 33.3523 17.5511 33.2273 17.321C33.1023 17.0881 32.9276 16.9048 32.7031 16.7713C32.4815 16.6378 32.223 16.571 31.9276 16.571C31.6122 16.571 31.3352 16.6477 31.0966 16.8011C30.858 16.9517 30.6719 17.1506 30.5384 17.3977C30.4077 17.642 30.3409 17.9105 30.3381 18.2031V19.1108C30.3381 19.4915 30.4077 19.8182 30.5469 20.0909C30.6861 20.3608 30.8807 20.5682 31.1307 20.7131C31.3807 20.8551 31.6733 20.9261 32.0085 20.9261C32.233 20.9261 32.4361 20.8949 32.6179 20.8324C32.7997 20.767 32.9574 20.6719 33.0909 20.5469C33.2244 20.4219 33.3253 20.267 33.3935 20.0824L34.8338 20.2443C34.7429 20.625 34.5696 20.9574 34.3139 21.2415C34.0611 21.5227 33.7372 21.7415 33.3423 21.8977C32.9474 22.0511 32.4957 22.1278 31.9872 22.1278ZM39.0579 22.1278C38.4045 22.1278 37.8434 21.9844 37.3746 21.6974C36.9087 21.4105 36.5494 21.0142 36.2965 20.5085C36.0465 20 35.9215 19.4148 35.9215 18.7528C35.9215 18.0881 36.0494 17.5014 36.305 16.9929C36.5607 16.4815 36.9215 16.0838 37.3874 15.7997C37.8562 15.5128 38.4102 15.3693 39.0494 15.3693C39.5806 15.3693 40.0508 15.4673 40.4599 15.6634C40.8718 15.8565 41.1999 16.1307 41.4442 16.4858C41.6886 16.8381 41.8278 17.25 41.8619 17.7216H40.3874C40.3278 17.4062 40.1857 17.1435 39.9613 16.9332C39.7397 16.7202 39.4428 16.6136 39.0707 16.6136C38.7553 16.6136 38.4783 16.6989 38.2397 16.8693C38.0011 17.0369 37.815 17.2784 37.6815 17.5938C37.5508 17.9091 37.4854 18.2869 37.4854 18.7273C37.4854 19.1733 37.5508 19.5568 37.6815 19.8778C37.8121 20.196 37.9954 20.4418 38.2312 20.6151C38.4698 20.7855 38.7496 20.8707 39.0707 20.8707C39.2979 20.8707 39.5011 20.8281 39.68 20.7429C39.8619 20.6548 40.0138 20.5284 40.136 20.3636C40.2582 20.1989 40.342 19.9986 40.3874 19.7628H41.8619C41.8249 20.2259 41.6886 20.6364 41.4528 20.9943C41.217 21.3494 40.896 21.6278 40.4897 21.8295C40.0835 22.0284 39.6062 22.1278 39.0579 22.1278ZM46.397 15.4545V16.6477H42.6342V15.4545H46.397ZM43.5632 13.8864H45.1058V20.0312C45.1058 20.2386 45.1371 20.3977 45.1996 20.5085C45.2649 20.6165 45.3501 20.6903 45.4553 20.7301C45.5604 20.7699 45.6768 20.7898 45.8047 20.7898C45.9013 20.7898 45.9893 20.7827 46.0689 20.7685C46.1513 20.7543 46.2138 20.7415 46.2564 20.7301L46.5163 21.9361C46.4339 21.9645 46.3161 21.9957 46.1626 22.0298C46.0121 22.0639 45.8274 22.0838 45.6087 22.0895C45.2223 22.1009 44.8743 22.0426 44.5646 21.9148C44.255 21.7841 44.0092 21.5824 43.8274 21.3097C43.6484 21.0369 43.5604 20.696 43.5632 20.2869V13.8864Z" fill="black"/>
</svg>
